<svg viewBox="0 0 318 59.26" xmlns="http://www.w3.org/2000/svg"><g fill="#000"><path d="m62.46 20.12h6.88v5.01c2.22-3.13 5.35-5.63 10.24-5.63 7.06 0 13.94 5.58 13.94 15.59v.11c0 9.96-6.83 15.59-13.94 15.59-5.01 0-8.13-2.5-10.24-5.29v13.77h-6.88zm24.07 15.08v-.11c0-5.81-3.93-9.62-8.59-9.62s-8.76 3.87-8.76 9.62v.11c0 5.75 4.1 9.62 8.76 9.62s8.59-3.7 8.59-9.62"/><path d="m98.99 35.31v-.12c0-8.53 6.6-15.7 15.65-15.7 5.63 0 9.16 2.1 12.01 5.18l-4.32 4.61c-2.11-2.22-4.33-3.76-7.74-3.76-5.01 0-8.71 4.33-8.71 9.56v.11c0 5.35 3.7 9.62 9 9.62 3.24 0 5.63-1.48 7.79-3.7l4.16 4.09c-2.96 3.3-6.43 5.64-12.29 5.64-8.93 0-15.53-7-15.53-15.53"/><path d="m132.67 42.31h7.57v7.85h-7.57z"/><path d="m0 10.33h7.57l9.5 29.53 9.79-29.65h5.91l9.79 29.65 9.5-29.53h7.35l-13.83 40.12h-6.09l-9.79-28.63-9.78 28.63h-6.04z"/><path d="m126.64 8.43c0 .68.03 1.11.1 1.63h-1.89c.07-.53.1-.95.1-1.63v-6.84h-1.69c-.74 0-1.28.03-1.72.09v-1.68c.45.06.99.09 1.7.09h4.96c.9 0 1.36-.03 1.84-.09v1.68c-.46-.06-.94-.09-1.84-.09h-1.57v6.84z"/><path d="m135.67 10.06c-.06-.4-.26-.99-.55-1.69l-1.81-4.3c-.24-.56-.35-.9-.64-1.92.05.67.1 1.69.1 1.97v4.11c0 .86.02 1.34.1 1.83h-1.75c.07-.5.1-.99.1-1.83v-6.29c0-.82-.03-1.34-.1-1.85h2.29c.09.44.25.96.46 1.49l2.55 6.21 2.53-6.21c.25-.62.36-1.02.45-1.49h2.3c-.07.6-.1 1.02-.1 1.85v6.29c0 .91.03 1.36.1 1.83h-1.75c.08-.51.1-.96.1-1.83v-4.16c.05-1.09.09-1.73.1-1.92-.16.68-.4 1.38-.58 1.83l-1.88 4.41c-.25.59-.48 1.29-.55 1.67h-1.48z"/><path d="m165.38 23.82h10.33c6.14 0 9.96 3.48 9.96 8.76v.07c0 5.88-4.72 8.95-10.48 8.95h-5.2v8.42h-4.61v-26.21zm9.96 13.63c3.48 0 5.65-1.95 5.65-4.68v-.08c0-3.07-2.21-4.68-5.65-4.68h-5.35v9.43h5.35z"/><path d="m188.55 44.33v-.07c0-4.27 3.33-6.37 8.16-6.37 2.21 0 3.78.34 5.32.82v-.49c0-2.81-1.72-4.31-4.91-4.31-2.21 0-3.86.49-5.65 1.24l-1.2-3.56c2.17-.97 4.31-1.61 7.45-1.61 2.96 0 5.17.79 6.55 2.21 1.46 1.42 2.13 3.52 2.13 6.1v11.72h-4.42v-2.47c-1.35 1.61-3.41 2.88-6.44 2.88-3.71 0-7-2.13-7-6.1zm13.55-1.42v-1.35c-1.16-.45-2.7-.79-4.49-.79-2.92 0-4.64 1.23-4.64 3.29v.07c0 1.91 1.69 3 3.86 3 3 0 5.28-1.72 5.28-4.23z"/><path d="m212.77 44.56v-10.41h-2.51v-3.89h2.51v-5.43h4.53v5.43h5.32v3.89h-5.32v9.7c0 1.76.9 2.47 2.43 2.47 1.01 0 1.91-.22 2.81-.67v3.71c-1.12.64-2.36 1.01-4.08 1.01-3.33 0-5.69-1.46-5.69-5.8z"/><path d="m228.16 44.56v-10.41h-2.51v-3.89h2.51v-5.43h4.53v5.43h5.32v3.89h-5.32v9.7c0 1.76.9 2.47 2.43 2.47 1.01 0 1.91-.22 2.81-.67v3.71c-1.12.64-2.36 1.01-4.08 1.01-3.33 0-5.69-1.46-5.69-5.8z"/><path d="m241.52 40.21v-.07c0-5.65 4.01-10.3 9.66-10.3 6.29 0 9.47 4.94 9.47 10.63 0 .41-.04.82-.07 1.27h-14.53c.49 3.22 2.77 5.02 5.69 5.02 2.21 0 3.78-.82 5.35-2.36l2.66 2.36c-1.87 2.25-4.46 3.71-8.09 3.71-5.73 0-10.15-4.16-10.15-10.26zm14.64-1.46c-.3-2.92-2.02-5.2-5.02-5.2-2.77 0-4.72 2.13-5.13 5.2z"/><path d="m265.22 30.26h4.53v4.46c1.24-2.96 3.52-4.98 7-4.83v4.79h-.26c-3.97 0-6.74 2.58-6.74 7.82v7.53h-4.53z"/><path d="m280.68 30.26h4.53v3.03c1.27-1.83 3.11-3.44 6.18-3.44 4.46 0 7.04 3 7.04 7.56v12.62h-4.53v-11.23c0-3.07-1.53-4.83-4.23-4.83s-4.45 1.84-4.45 4.91v11.16h-4.53v-19.77z"/><path d="m302.28 47.44 2.02-3.07c2.17 1.61 4.45 2.43 6.48 2.43s3.07-.82 3.07-2.13v-.07c0-1.53-2.1-2.06-4.42-2.77-2.92-.82-6.18-2.02-6.18-5.8v-.08c0-3.74 3.11-6.03 7.04-6.03 2.47 0 5.17.86 7.26 2.25l-1.8 3.22c-1.91-1.16-3.93-1.87-5.58-1.87-1.76 0-2.77.82-2.77 1.95v.07c0 1.46 2.13 2.06 4.46 2.81 2.88.9 6.14 2.21 6.14 5.77v.07c0 4.16-3.22 6.22-7.34 6.22-2.81 0-5.92-1.01-8.39-2.96z"/></g></svg>